# xmcd
#
# Track frame offsets: 
#        150
#        13604
#        31243
#        47940
#        66476
#        84942
#        97341
#        109575
#        133710
#        146081
#        165272
#
# Disc length: 2402 seconds
#
# Revision: 0
# Processed by: cddbd v1.5.2PL0 Copyright (c) Steve Scherf et al.
# Submitted via: ExactAudioCopyFreeDBPlugin 1.0
#
DISCID=9309600b
DTITLE=Sam Platts and the Kootenai Three - Sundown at Noon
DYEAR=2013
DGENRE=Country
TTITLE0=Don't Call Me Baby
TTITLE1=Cowboy Ghosts
TTITLE2=Guitar
TTITLE3=Reservegas
TTITLE4=Meet Me in Missoula
TTITLE5=What Do You Want from Me
TTITLE6=Sundown at Noon
TTITLE7=I Think I'm Gonna Leave
TTITLE8=Be Better to Your Baby
TTITLE9=Waltz of a Fool
TTITLE10=Can't Dance with Memories
EXTD=
EXTT0=
EXTT1=
EXTT2=
EXTT3=
EXTT4=
EXTT5=
EXTT6=
EXTT7=
EXTT8=
EXTT9=
EXTT10=
PLAYORDER=
